<?xml version="1.0" encoding="iso-8859-1"?>
<!-- Generator: Adobe Illustrator 16.0.0, SVG Export Plug-In . SVG Version: 6.00 Build 0)  -->
<!DOCTYPE svg PUBLIC "-//W3C//DTD SVG 1.1//EN" "http://www.w3.org/Graphics/SVG/1.1/DTD/svg11.dtd">
<svg version="1.1" id="Capa_1" xmlns="http://www.w3.org/2000/svg" xmlns:xlink="http://www.w3.org/1999/xlink" x="0px" y="0px"
	 width="678.117px" height="678.117px" viewBox="0 0 678.117 678.117" style="enable-background:new 0 0 678.117 678.117;"
	 xml:space="preserve">
<g>
	<g>
		<path d="M643.42,396.084c-4.465-33.75-18.365-69.437-41.323-106.069c-37.783-60.289-58.656-110.547-75.433-150.93
			c-18.119-43.625-32.43-79.029-58.926-102.572C439.73,11.62,401.283,0,339.186,0h-0.155c-0.078,0-0.155,0-0.233,0
			c-62.034,0-100.453,11.627-128.454,36.505c-26.489,23.543-40.807,58.473-58.926,102.099
			c-16.776,40.383-37.649,90.882-75.433,151.17c-22.957,36.633-36.858,72.438-41.323,106.188
			c-4.047,30.594-0.438,59.957,10.723,87.16c32.903,80.18,121.998,120.789,165.383,131.398c4.612,1.971,30.247,14.262,30.247,47.342
			v16.254h197.784v-16.248c0-33.086,24.766-45.342,29.378-47.312c43.386-10.609,131.816-51.189,164.712-131.371
			C644.056,455.977,647.468,426.676,643.42,396.084z M602.549,470.818c-26.136,63.693-100.113,102.062-143.457,112.312l-0.883,0.205
			l-0.854,0.303c-1.377,0.494-13.852,3.773-26.263,15.471c-9.494,8.957-20.464,22.498-24.285,43.688H271.275
			c-3.822-21.189-14.792-34.73-24.285-43.682c-12.404-11.697-24.878-15.674-26.263-16.168l-0.855,0.043l-0.883-0.037
			c-43.343-10.248-117.314-48.527-143.45-112.227c-19.538-47.609-10.094-102.572,28.064-163.455
			c39.225-62.584,60.677-114.213,77.913-155.712c17.165-41.33,29.569-70.757,50.478-89.335c21.523-19.136,53.5-26.906,106.93-26.906
			h0.254c53.416,0,85.394,7.784,106.916,26.913c20.909,18.577,33.312,48.231,50.478,89.561
			c17.235,41.5,38.688,93.043,77.913,155.635C612.644,368.309,622.08,423.209,602.549,470.818z"/>
		<path d="M245.09,319.499c26.277,0,47.652-21.375,47.652-47.652c0-26.277-21.375-47.651-47.652-47.651
			c-26.277,0-47.651,21.375-47.651,47.651C197.438,298.124,218.813,319.499,245.09,319.499z M245.09,256.787
			c8.307,0,15.067,6.76,15.067,15.067c0,8.307-6.76,15.067-15.067,15.067c-8.307,0-15.067-6.76-15.067-15.067
			C230.023,263.547,236.783,256.787,245.09,256.787z"/>
		<path d="M431.262,319.499c26.276,0,47.651-21.375,47.651-47.652c0-22.356-15.858-41.958-37.699-46.606
			c-3.256-0.692-6.604-1.045-9.952-1.045c-26.277,0-47.652,21.375-47.652,47.651C383.609,298.124,404.991,319.499,431.262,319.499z
			 M431.262,256.787c1.073,0,2.14,0.113,3.164,0.332c6.895,1.469,11.896,7.664,11.896,14.735c0,8.307-6.76,15.067-15.067,15.067
			c-8.307,0-15.066-6.76-15.066-15.067C416.201,263.547,422.954,256.787,431.262,256.787z"/>
		<path d="M522.658,367.955c-5.191,0-10.002,0.467-12.884,0.742l-0.275,0.029c-5.156,0.494-9.91,0.734-14.53,0.734
			c-13.689,0-26.305-2.127-42.185-7.107c-8.293-2.605-16.762-5.537-24.956-8.377c-11.38-3.941-23.154-8.018-35.135-11.471
			c-16.734-4.818-30.783-7.566-44.205-8.64c-2.994-0.24-6.201-0.339-9.444-0.29c-3.242-0.049-6.449,0.049-9.444,0.29
			c-13.428,1.074-27.471,3.822-44.205,8.64c-11.987,3.447-23.755,7.521-35.135,11.471c-8.187,2.84-16.656,5.771-24.949,8.377
			c-15.879,4.98-28.495,7.107-42.185,7.107c-4.62,0-9.374-0.24-14.53-0.734l-0.275-0.029c-2.875-0.275-7.692-0.742-12.884-0.742
			c-5.496,0-22.208,0-30.317,12.299c-2.6,3.941-6.216,12.291-1.243,23.896c6.449,15.045,17.482,25.133,27.393,31.604
			c-3.603,5.184-6.795,10.504-9.36,15.639c-7.812,15.617-9.536,28.721-5.128,38.957c4.528,10.502,14.806,16.527,28.212,16.527
			c5.828,0,12.432-1.059,20.025-3.221c-0.007,3.045,0.29,6.111,0.982,9.154c2.5,11.027,9.508,19.85,20.259,25.516
			c6.718,3.539,13.916,5.332,21.389,5.332c12.361,0,23.677-4.648,36.788-10.029c18.048-7.41,40.51-16.643,74.614-16.643
			c34.104,0,56.566,9.225,74.621,16.643c13.11,5.381,24.426,10.029,36.78,10.029h0.007c7.474,0,14.665-1.793,21.382-5.332
			c10.751-5.666,17.752-14.488,20.259-25.516c0.692-3.043,0.982-6.109,0.982-9.16c7.594,2.16,14.198,3.221,20.025,3.221l0,0
			c13.407,0,23.691-6.025,28.22-16.529c4.407-10.236,2.684-23.338-5.128-38.957c-2.571-5.135-5.765-10.447-9.367-15.639
			c9.918-6.477,20.951-16.564,27.4-31.609c4.973-11.605,1.356-19.955-1.25-23.896C544.867,367.955,528.154,367.955,522.658,367.955z
			 M460.308,505.627c-0.177,0.777-0.509,2.219-3.666,3.885c-2.07,1.096-3.984,1.576-6.188,1.576l0,0
			c-5.926,0-14.078-3.348-24.405-7.586c-19.608-8.053-46.465-19.08-86.996-19.08c-40.539,0-67.388,11.027-86.997,19.08
			c-10.327,4.238-18.479,7.586-24.405,7.586c-2.211,0-4.125-0.488-6.195-1.576c-3.158-1.658-3.49-3.107-3.667-3.885
			c-0.749-3.242,0.509-8.166,2.55-13.047c15.915-4.441,32.507-8.328,49.608-11.344c26.072-4.613,47.956-7.967,69.959-7.967h1.109
			c22.78,0,46.345,4.293,67.133,7.967c17.095,3.016,33.688,6.838,49.602,11.281C459.806,497.398,461.056,502.385,460.308,505.627z
			 M496.876,414.449l-26.149,6.979l18.789,19.877c6.237,6.598,12.178,14.736,16.303,22.322c2.451,4.514,3.814,8.004,4.55,10.482
			c-2.875-0.346-7.438-1.285-14.22-3.652c-5.298-1.844-10.688-3.609-16.154-5.297c-15.731-4.861-32.126-9.07-49.037-12.588
			c-5.657-1.172-11.365-2.275-17.136-3.291c-18.663-3.299-39.438-8.457-60.875-9.516c-3.963-0.197-7.933-1.816-11.931-1.816
			c-0.432,0-0.869,0-1.3,0c-4.726,0-9.416,1.682-14.113,1.936c-19.46,1.053-39.013,4.705-61.341,8.646
			c-5.764,1.018-11.479,2.494-17.136,3.674c-16.911,3.51-33.306,7.91-49.037,12.771c-5.467,1.688-10.857,3.545-16.154,5.396
			c-6.781,2.365-11.345,3.355-14.219,3.701c0.728-2.48,2.098-5.947,4.542-10.461c4.125-7.588,10.065-15.711,16.303-22.314
			l19.016-19.814l-26.376-7.035c-0.897-0.283-12.828-4.154-21.368-13.754c2.034,0.127,3.913,0.305,5.347,0.445l0.283,0.029
			c6.202,0.594,11.966,0.883,17.638,0.883c16.967,0,32.98-2.656,51.939-8.604c8.752-2.748,17.447-5.758,25.86-8.674
			c11.486-3.979,22.329-7.736,33.482-10.949c14.586-4.197,26.595-5.998,37.791-6.895c2.062-0.17,4.309,0.381,6.598,0.381h0.275
			h0.275c2.282,0,4.535-0.551,6.57-0.389c11.195,0.898,23.211,2.982,37.798,7.184c11.153,3.207,21.996,6.824,33.481,10.801
			c8.413,2.91,17.108,5.855,25.86,8.604c18.959,5.947,34.979,8.568,51.946,8.568c5.673,0,11.443-0.311,17.639-0.904l0.282-0.035
			c1.441-0.141,3.312-0.324,5.348-0.445C509.704,410.289,497.78,414.166,496.876,414.449z"/>
		<path d="M289.387,398.33c-4.485,4.775-7.015,11.117-3.398,19.143c0,0,22.526,0.262,26.221-13.223
			c1.158-4.232,0.466-9.826-3.37-17.209C308.84,387.041,296.584,390.658,289.387,398.33z"/>
		<path d="M369.249,387.041c-3.836,7.383-4.528,12.971-3.369,17.209c3.694,13.484,26.22,13.223,26.22,13.223
			c3.617-8.018,1.088-14.367-3.397-19.143C381.497,390.658,369.249,387.041,369.249,387.041z"/>
	</g>
</g>
<g>
</g>
<g>
</g>
<g>
</g>
<g>
</g>
<g>
</g>
<g>
</g>
<g>
</g>
<g>
</g>
<g>
</g>
<g>
</g>
<g>
</g>
<g>
</g>
<g>
</g>
<g>
</g>
<g>
</g>
</svg>
